<svg xmlns="http://www.w3.org/2000/svg" viewBox="0 0 24 24" fill="none">
  <rect x="2" y="6" width="20" height="12" rx="2" fill="#000000" />
  <path d="M9 12.5C9 11.12 10.12 10 11.5 10C12.88 10 14 11.12 14 12.5C14 13.88 12.88 15 11.5 15C10.12 15 9 13.88 9 12.5Z" fill="white" />
  <path d="M15 10.5C15 9.67 15.67 9 16.5 9C17.33 9 18 9.67 18 10.5C18 11.33 17.33 12 16.5 12C15.67 12 15 11.33 15 10.5Z" fill="white" />
  <path d="M6 10.5C6 9.67 6.67 9 7.5 9C8.33 9 9 9.67 9 10.5C9 11.33 8.33 12 7.5 12C6.67 12 6 11.33 6 10.5Z" fill="white" />
</svg> 